PathFileType	4	(X/Y/Z)	C:/Users/beibeiliu/ov580/test_trc\sequence.9_training_dense_left.trc
DataRate	CameraRate	NumFrames	NumMarkers	Units	OrigDataRate	OrigDataStartFrame	OrigNumFrames
120	120	7	19	mm	120	249	398
Frame#	Time	ThumbCMC			ThumbMCP			ThumbIP			ThumbTip			IndexMCP			IndexPIP			IndexTip			MiddleMCP			MiddlePIP			MiddleTip			RingMCP			RingPIP			RingTip			PinkyMCP			PinkyPIP			PinkyTip			BackHand1			BackHand2			BackHand3	
		X0	Y0	Z0	X1	Y1	Z1	X2	Y2	Z2	X3	Y3	Z3	X4	Y4	Z4	X5	Y5	Z5	X6	Y6	Z6	X7	Y7	Z7	X8	Y8	Z8	X9	Y9	Z9	X10	Y10	Z10	X11	Y11	Z11	X12	Y12	Z12	X13	Y13	Z13	X14	Y14	Z14	X15	Y15	Z15	X16	Y16	Z16	X17	Y17	Z17	X18	Y18	Z18	
248	2.06667	-269.496	-28.3544	2.69354	-281.33	-12.1656	-5.81926	-293.442	-0.336738	-18.3078	-306.484	7.86544	-29.1655	-255.763	26.18	-36.1095	-259.995	48.3032	-43.1398	-259.559	69.9154	-50.4544	-230.029	32.3742	-34.5534	-233.299	57.0339	-40.8062	-229.671	78.0669	-45.9484	-212.385	27.0079	-25.6656	-210.224	49.3138	-31.0085	-206.098	66.83	-36.3747	-192.999	15.2434	-10.7541	-184.66	31.0134	-14.477	-170.008	41.7363	-22.8806	-219.391	-16.2837	-15.9436	-222.919	-41.7204	-4.73787	-244.204	-29.3957	-12.855	
249	2.075	-270.068	-25.8717	0.0513803	-282.979	-10.0441	-8.07727	-295.934	3.49019	-23.068	-308.756	8.14319	-27.9777	-256.884	30.9401	-39.4955	-259.328	48.3919	-43.2581	-262.486	70.1441	-50.342	-232.349	32.8776	-35.1294	-230.363	56.1841	-39.8199	-226.071	81.5283	-45.8947	-212.05	28.9026	-26.4229	-208.698	52.4301	-31.91	-204.581	73.1378	-37.536	-193.323	17.8907	-13.5792	-184.726	30.4074	-14.2305	-172.077	41.3381	-21.9388	-215.995	-17.3026	-17.5635	-224.016	-39.3384	-3.70818	-247.723	-29.9576	-15.6757	
250	2.08333	-266.023	-23.1111	-0.961823	-283.951	-6.69385	-10.3553	-294.326	6.65651	-24.8138	-305.392	10.6518	-29.7182	-258.768	30.4887	-40.9406	-254.861	50.2347	-46.0643	-257.87	76.3307	-55.129	-229.468	38.4783	-38.5365	-230.961	59.4554	-41.9019	-224.804	81.5297	-46.7283	-213.017	30.2752	-27.7212	-204.553	51.8974	-30.2292	-202.998	70.5794	-36.052	-194.305	17.6798	-14.0623	-184.181	32.7568	-14.7315	-173.036	42.4775	-21.4096	-220.547	-16.8632	-19.1214	-224.743	-38.6002	-4.9779	-245.303	-27.1152	-16.1327	
251	2.09167	-270.512	-22.8269	-1.38983	-282.636	-5.25343	-10.1638	-292.564	9.12609	-26.0892	-303.848	14.961	-36.8874	-254.035	34.2673	-43.2763	-253.807	54.3864	-48.3842	-255.449	74.4332	-54.9885	-230.024	38.2537	-39.8965	-225.847	58.9	-43.0453	-222.157	83.1507	-48.4089	-208.977	33.34	-30.4655	-205.679	52.2615	-33.5325	-198.863	72.6651	-37.2026	-194.359	17.9212	-14.4216	-183.476	32.4786	-16.5717	-170.034	45.8663	-24.6904	-220.471	-14.3223	-21.7172	-224.703	-38.815	-6.90707	-242.888	-25.5792	-19.9805	
252	2.1	-267.034	-20.7033	-2.27905	-282.754	-2.19955	-17.5309	-291.567	9.35731	-28.8998	-303.64	16.0415	-37.9512	-252.337	31.9294	-44.3621	-247.968	56.8553	-50.9872	-248.628	77.2052	-59.4	-224.898	39.1996	-42.0215	-224.269	59.1352	-45.4081	-218.711	87.1711	-51.4218	-207.357	31.8471	-31.2546	-203.297	49.9629	-33.6299	-194.752	69.5761	-37.1611	-187.249	18.6372	-13.9023	-180.824	36.1483	-18.9875	-169.015	46.7283	-25.1686	-219.596	-15.1458	-19.6408	-224.804	-37.9936	-7.82418	-244.686	-24.8438	-21.313	
253	2.10833	-270.56	-19.2815	-3.48373	-278.023	0.114503	-16.7094	-289.855	12.0037	-32.584	-302.033	17.7674	-40.9471	-243.579	35.383	-47.163	-245.581	53.9362	-51.7484	-245.578	75.713	-59.9733	-221.626	39.575	-42.9095	-219.604	57.7427	-46.955	-212.099	83.8137	-50.1638	-201.167	33.2689	-31.4438	-195.186	50.523	-33.5822	-188.996	72.6322	-38.4756	-185.247	17.1782	-14.9002	-176.237	33.6705	-18.1599	-163.659	40.0437	-22.9505	-215.29	-13.9264	-22.6233	-221.814	-35.9288	-9.45623	-245.774	-21.1035	-21.7651	
254	2.11667	-263.987	-13.9342	-8.37868	-277.676	3.56072	-19.9112	-284.608	15.6342	-32.9318	-295.936	24.2331	-45.8775	-241.399	35.3484	-46.5798	-239.046	56.9726	-52.5835	-235.332	80.8737	-60.0128	-214.101	34.5117	-41.3536	-210.411	57.9952	-46.1825	-202.179	86.894	-50.3337	-196.681	28.6975	-30.5369	-189.942	51.837	-34.6348	-180.786	70.8112	-36.2245	-180.907	13.5294	-12.158	-173.106	28.8294	-16.8715	-157.626	39.3977	-22.4221	-214.521	-14.3949	-22.2798	-223.083	-34.9489	-7.48056	-243.413	-21.99	-21.0583	
